<?xml version="1.0"?>
<!DOCTYPE svg PUBLIC "-//W3C//DTD SVG 1.1//EN" "http://www.w3.org/Graphics/SVG/1.1/DTD/svg11.dtd">
<svg xmlns="http://www.w3.org/2000/svg" xmlns:xl="http://www.w3.org/1999/xlink" version="1.1" viewBox="486 30 19 25" width="19pt" height="25pt"><metadata xmlns:dc="http://purl.org/dc/elements/1.1/"><dc:date>2014-12-19 00:33Z</dc:date><!-- Produced by OmniGraffle Professional 5.4.2 --></metadata><defs></defs><g stroke="none" stroke-opacity="1" stroke-dasharray="none" fill="none" fill-opacity="1"><title>Canvas 1</title><g><title>Layer 1</title><path d="M 487.5 41 L 503.5 41 C 504.32843 41 505 41.671573 505 42.5 L 505 42.5 C 505 43.328427 504.32843 44 503.5 44 L 487.5 44 C 486.67157 44 486 43.328427 486 42.5 C 486 42.5 486 42.5 486 42.5 L 486 42.5 C 486 41.671573 486.67157 41 487.5 41 C 487.5 41 487.5 41 487.5 41 Z" fill="white" fill-opacity=".7"/><path d="M 487.5 35 L 503.5 35 C 504.32843 35 505 35.671573 505 36.5 L 505 36.5 C 505 37.328427 504.32843 38 503.5 38 L 487.5 38 C 486.67157 38 486 37.328427 486 36.5 C 486 36.5 486 36.5 486 36.5 L 486 36.5 C 486 35.671573 486.67157 35 487.5 35 C 487.5 35 487.5 35 487.5 35 Z" fill="white" fill-opacity=".7"/><path d="M 487.5 47 L 503.5 47 C 504.32843 47 505 47.671573 505 48.5 L 505 48.5 C 505 49.328427 504.32843 50 503.5 50 L 487.5 50 C 486.67157 50 486 49.328427 486 48.5 C 486 48.5 486 48.5 486 48.5 L 486 48.5 C 486 47.671573 486.67157 47 487.5 47 C 487.5 47 487.5 47 487.5 47 Z" fill="white" fill-opacity=".7"/></g></g></svg>
